<?xml version="1.0" encoding="UTF-8" standalone="no"?>
<svg
   height="16px"
   viewBox="0 0 16 16"
   width="16px"
   version="1.1"
   id="svg4"
   sodipodi:docname="draw-triangle.svg"
   inkscape:version="1.4 (e7c3feb100, 2024-10-09)"
   xml:space="preserve"
   xmlns:inkscape="http://www.inkscape.org/namespaces/inkscape"
   xmlns:sodipodi="http://sodipodi.sourceforge.net/DTD/sodipodi-0.dtd"
   xmlns:xlink="http://www.w3.org/1999/xlink"
   xmlns="http://www.w3.org/2000/svg"
   xmlns:svg="http://www.w3.org/2000/svg"><defs
     id="defs8"><clipPath
       id="a"><path
         d="m 13,11 a 3,3 0 1 0 -3,3 3,3 0 0 0 3,-3 z m -3,5 a 5,5 0 1 1 5,-5 5,5 0 0 1 -5,5 z M 6.42,2.56 5.75,3.2 A 2,2 0 0 1 4.37,3.76 H 2 A 1.89,1.89 0 0 0 0,5.51 v 10.54 a 1.89,1.89 0 0 0 2,1.76 h 16 a 1.89,1.89 0 0 0 2,-1.76 V 5.51 A 1.89,1.89 0 0 0 18,3.75 H 15.63 A 2,2 0 0 1 14.25,3.19 L 13.58,2.55 A 2,2 0 0 0 12.2,2 H 7.8 A 2,2 0 0 0 6.42,2.56 Z"
         clip-rule="evenodd"
         id="path2-3" /></clipPath><linearGradient
       id="linearGradient870"><stop
         id="stop866"
         offset="0"
         style="stop-color:#cd9ef7;stop-opacity:1" /><stop
         id="stop868"
         offset="1"
         style="stop-color:#a56de2;stop-opacity:1" /></linearGradient><linearGradient
       gradientTransform="matrix(0.45945947,0,0,0.45945947,5.9497471,-0.08366477)"
       gradientUnits="userSpaceOnUse"
       xlink:href="#linearGradient3924-64"
       id="linearGradient5397"
       y2="41.414425"
       x2="23.99999"
       y1="6.5908961"
       x1="23.99999" /><linearGradient
       id="linearGradient3924-64"><stop
         offset="0"
         style="stop-color:#ffffff;stop-opacity:1"
         id="stop3926-3-6" /><stop
         offset="0"
         style="stop-color:#ffffff;stop-opacity:0.23529412"
         id="stop3928-0" /><stop
         offset="1"
         style="stop-color:#ffffff;stop-opacity:0.15686275"
         id="stop3930-3-59" /><stop
         offset="1"
         style="stop-color:#ffffff;stop-opacity:0.39215687"
         id="stop3932-0" /></linearGradient><radialGradient
       gradientTransform="matrix(2.003784,0,0,1.4,27.98813,-17.4)"
       gradientUnits="userSpaceOnUse"
       xlink:href="#linearGradient3688-166-749-9"
       id="radialGradient3082-6"
       fy="43.5"
       fx="4.9929786"
       r="2.5"
       cy="43.5"
       cx="4.9929786" /><linearGradient
       id="linearGradient3688-166-749-9"><stop
         offset="0"
         style="stop-color:#181818;stop-opacity:1"
         id="stop2883-2" /><stop
         offset="1"
         style="stop-color:#181818;stop-opacity:0"
         id="stop2885-2" /></linearGradient><radialGradient
       gradientTransform="matrix(2.003784,0,0,1.4,-20.01187,-104.4)"
       gradientUnits="userSpaceOnUse"
       xlink:href="#linearGradient3688-166-749-9"
       id="radialGradient3084-4"
       fy="43.5"
       fx="4.9929786"
       r="2.5"
       cy="43.5"
       cx="4.9929786" /><linearGradient
       gradientUnits="userSpaceOnUse"
       xlink:href="#linearGradient3702-501-757-1"
       id="linearGradient3086-8"
       y2="39.999443"
       x2="25.058096"
       y1="47.027729"
       x1="25.058096" /><linearGradient
       id="linearGradient3702-501-757-1"><stop
         offset="0"
         style="stop-color:#181818;stop-opacity:0"
         id="stop2895-2" /><stop
         offset="0.5"
         style="stop-color:#181818;stop-opacity:1"
         id="stop2897-89" /><stop
         offset="1"
         style="stop-color:#181818;stop-opacity:0"
         id="stop2899-36" /></linearGradient><linearGradient
       gradientUnits="userSpaceOnUse"
       y2="21.532459"
       x2="13.608144"
       y1="2.5455263"
       x1="13.608144"
       id="linearGradient872"
       xlink:href="#linearGradient870"
       gradientTransform="translate(0.21108301,0.24123773)" /><clipPath
       id="a-7"><path
         d="m 13,11 a 3,3 0 1 0 -3,3 3,3 0 0 0 3,-3 z m -3,5 a 5,5 0 1 1 5,-5 5,5 0 0 1 -5,5 z M 6.42,2.56 5.75,3.2 A 2,2 0 0 1 4.37,3.76 H 2 A 1.89,1.89 0 0 0 0,5.51 v 10.54 a 1.89,1.89 0 0 0 2,1.76 h 16 a 1.89,1.89 0 0 0 2,-1.76 V 5.51 A 1.89,1.89 0 0 0 18,3.75 H 15.63 A 2,2 0 0 1 14.25,3.19 L 13.58,2.55 A 2,2 0 0 0 12.2,2 H 7.8 A 2,2 0 0 0 6.42,2.56 Z"
         clip-rule="evenodd"
         id="path2-3-5" /></clipPath><linearGradient
       id="linearGradient3117"><stop
         id="stop3119"
         style="stop-color:#ffffff;stop-opacity:1"
         offset="0" /><stop
         id="stop3121"
         style="stop-color:#ffffff;stop-opacity:0.23529412"
         offset="0.56911701" /><stop
         id="stop3123"
         style="stop-color:#ffffff;stop-opacity:0.15686275"
         offset="0.93297637" /><stop
         id="stop3125"
         style="stop-color:#ffffff;stop-opacity:0.39215687"
         offset="1" /></linearGradient><linearGradient
       x1="29.126724"
       y1="19.787613"
       x2="29.291178"
       y2="57.567127"
       id="linearGradient3039"
       xlink:href="#linearGradient3117"
       gradientUnits="userSpaceOnUse"
       gradientTransform="matrix(0.3209283,0,-0.00139699,0.29826454,-1.3199469,-3.5360874)" /><linearGradient
       x1="24"
       y1="1.8243872"
       x2="24"
       y2="44.315323"
       id="linearGradient3042"
       xlink:href="#linearGradient4171"
       gradientUnits="userSpaceOnUse"
       gradientTransform="matrix(0.3333471,0,0,0.32559732,-3.3227132e-4,-0.00505258)" /><linearGradient
       id="linearGradient4171"><stop
         style="stop-color:#cd9ef7;stop-opacity:1;"
         offset="0"
         id="stop4173" /><stop
         style="stop-color:#a56de2;stop-opacity:1;"
         offset="1"
         id="stop4175" /></linearGradient></defs><sodipodi:namedview
     id="namedview6"
     pagecolor="#ffffff"
     bordercolor="#000000"
     borderopacity="0.25"
     inkscape:showpageshadow="2"
     inkscape:pageopacity="0.0"
     inkscape:pagecheckerboard="0"
     inkscape:deskcolor="#d1d1d1"
     showgrid="false"
     inkscape:zoom="16"
     inkscape:cx="-8.46875"
     inkscape:cy="13.09375"
     inkscape:window-width="1823"
     inkscape:window-height="1194"
     inkscape:window-x="309"
     inkscape:window-y="219"
     inkscape:window-maximized="0"
     inkscape:current-layer="g1" /><g
     id="g248"
     transform="translate(-21.515069,-7.9788424)" /><g
     id="g1"
     transform="matrix(0.63870448,0,0,0.6854656,2.9003039,2.8623076)"><path
       d="M 14,12.518301 C 12.045538,9.0468886 10,5 7.975142,1.5 6,5 4.1044533,8.9457609 2,12.513164 c -0.3189516,0.522763 -0.6329068,0.692927 -0.4793859,0.923014 0.1535186,0.230089 0.4184294,0.04807 1.1467418,0.06307 H 13.462952 c 0.678046,0.0075 0.864678,0.10371 0.989435,-0.126372 C 14.608061,13.142791 14.297545,12.987276 14,12.518301 Z"
       id="path11159"
       style="opacity:0.6;fill:none;stroke:url(#linearGradient3039);stroke-width:1;stroke-linejoin:round;stroke-miterlimit:4;stroke-dasharray:none;stroke-opacity:1" /><path
       d="M 15.393251,13.018518 8.8829124,1.0185176 C 8.6957865,0.68518482 8.3571884,0.50000002 7.9800883,0.50000002 c -0.3770979,0 -0.717435,0.2222199 -0.9074038,0.55555478 L 0.61082644,13.055556 c -0.1521025,0.296297 -0.1538415,0.703704 0.033445,0.999999 C 0.83155534,14.351852 1.1326027,14.5 1.5097027,14.5 H 14.481894 c 0.3771,0 0.717278,-0.185185 0.869383,-0.481481 0.189811,-0.296296 0.191392,-0.666666 0.04198,-1.000001 z"
       id="path11155-59"
       style="color:#000000;clip-rule:nonzero;display:inline;overflow:visible;visibility:visible;opacity:0.44;isolation:auto;mix-blend-mode:normal;color-interpolation:sRGB;color-interpolation-filters:linearRGB;solid-color:#000000;solid-opacity:1;fill:none;fill-opacity:1;fill-rule:nonzero;stroke:#7d2cd5;stroke-width:1.30276011;stroke-linecap:butt;stroke-linejoin:miter;stroke-miterlimit:4;stroke-dasharray:none;stroke-dashoffset:0;stroke-opacity:1;marker:none;color-rendering:auto;image-rendering:auto;shape-rendering:auto;text-rendering:auto;enable-background:accumulate" /><path
       d="M 14.070395,12.394109 8.7238163,2.5391765 C 8.5701396,2.2654289 8.2920683,2.1133469 7.9823779,2.1133469 c -0.3096905,0 -0.58919,0.1824969 -0.7452011,0.4562463 l -5.306764,9.8549328 c -0.1249131,0.243332 -0.1263413,0.577913 0.027469,0.821244 0.1538059,0.243332 0.4010394,0.364998 0.7107307,0.364998 H 13.32195 c 0.309692,0 0.589062,-0.152084 0.713977,-0.395414 0.155881,-0.243332 0.15718,-0.547496 0.03447,-0.821245 z"
       id="path11155-59-6-5"
       style="color:#000000;clip-rule:nonzero;display:inline;overflow:visible;visibility:visible;isolation:auto;mix-blend-mode:normal;color-interpolation:sRGB;color-interpolation-filters:linearRGB;solid-color:#000000;solid-opacity:1;fill:none;fill-opacity:1;fill-rule:nonzero;stroke:#8940d9;stroke-width:1.26981;stroke-linecap:butt;stroke-linejoin:miter;stroke-miterlimit:4;stroke-dasharray:none;stroke-dashoffset:0;stroke-opacity:0.937255;marker:none;color-rendering:auto;image-rendering:auto;shape-rendering:auto;text-rendering:auto;enable-background:accumulate" /><path
       d="M 14.828891,12.749302 8.8281252,1.6885578 c -0.17248,-0.3072423 -0.484575,-0.4779325 -0.832158,-0.4779325 -0.347583,0 -0.661281,0.2048265 -0.836381,0.5120708 L 1.2035067,12.783441 c -0.1401972,0.273105 -0.1418001,0.648624 0.030827,0.921728 0.172625,0.273105 0.4501089,0.409658 0.7976928,0.409658 H 13.988866 c 0.347585,0 0.661137,-0.170692 0.801336,-0.443795 0.174954,-0.273105 0.176412,-0.614486 0.03869,-0.92173 z"
       id="path11155-59-6"
       style="color:#000000;clip-rule:nonzero;display:inline;overflow:visible;visibility:visible;opacity:1;isolation:auto;mix-blend-mode:normal;color-interpolation:sRGB;color-interpolation-filters:linearRGB;solid-color:#000000;solid-opacity:1;fill:none;fill-opacity:1;fill-rule:nonzero;stroke:#a56de2;stroke-width:1.12827;stroke-linecap:butt;stroke-linejoin:miter;stroke-miterlimit:4;stroke-dasharray:none;stroke-dashoffset:0;stroke-opacity:1;marker:none;color-rendering:auto;image-rendering:auto;shape-rendering:auto;text-rendering:auto;enable-background:accumulate" /></g></svg>
